<svg width="16" height="16" viewBox="0 0 16 16" fill="none" xmlns="http://www.w3.org/2000/svg">
<g opacity="0.6">
<path fill-rule="evenodd" clip-rule="evenodd" d="M5.12895 2.32953C5.26847 2.12345 5.50113 2 5.75 2H10.25C10.4989 2 10.7315 2.12345 10.8711 2.32953C10.9073 2.38309 10.9361 2.44042 10.9571 2.5H11.25C12.7688 2.5 14 3.73122 14 5.25V11.25C14 12.7688 12.7688 14 11.25 14H4.75C3.23122 14 2 12.7688 2 11.25V5.25C2 3.73122 3.23122 2.5 4.75 2.5H5.04288C5.06394 2.44042 5.09269 2.38309 5.12895 2.32953ZM5.44223 4H4.75C4.05964 4 3.5 4.55964 3.5 5.25V11.25C3.5 11.9404 4.05964 12.5 4.75 12.5H11.25C11.9404 12.5 12.5 11.9404 12.5 11.25V5.25C12.5 4.55964 11.9404 4 11.25 4H10.5578L10.4106 4.36795C10.0163 5.35365 9.06164 6 8 6C6.93836 6 5.98369 5.35365 5.5894 4.36795L5.44223 4ZM9.14223 3.5H6.85777L6.98212 3.81086C7.14861 4.22708 7.55172 4.5 8 4.5C8.44828 4.5 8.85139 4.22708 9.01788 3.81086L9.14223 3.5Z" fill="#747686"/>
</g>
</svg>
